<svg width="170" height="52" viewBox="0 0 170 52" fill="none" xmlns="http://www.w3.org/2000/svg">
<path d="M84.229 52V51.9155C84.3135 51.8099 84.4613 51.7466 84.588 51.7677C85.2004 51.7466 85.7916 51.7466 86.404 51.7677C86.5307 51.7677 86.6785 51.8099 86.763 51.9155V52H84.229Z" fill="#D1EFFA"/>
<path d="M86.7631 51.9155C85.9184 51.8944 85.0738 51.8944 84.2291 51.9155C83.0677 51.8522 81.9063 51.8099 80.7449 51.7255C77.6618 51.4932 74.5999 51.0286 71.6013 50.3318C61.2331 47.9245 52.1318 43.0887 44.1919 36.0569C43.4528 35.4023 42.756 34.7265 42.038 34.0508C41.8691 33.903 41.7213 33.6918 41.6368 33.4807C41.5101 33.185 41.5734 32.8683 41.7846 32.636C41.9958 32.4037 42.3336 32.3192 42.6293 32.4459C42.8193 32.5304 43.0094 32.6149 43.1783 32.7205C50.7592 37.4084 59.0369 40.8293 67.7159 42.8565C70.63 43.5322 73.5652 44.0601 76.5215 44.4402C80.766 44.9681 85.0527 45.1582 89.3182 45.0104C91.6199 44.947 93.9005 44.7358 96.1811 44.4402C101.503 43.7645 106.761 42.5608 111.85 40.8715C114.532 39.9846 117.15 38.971 119.705 37.7885C120.085 37.5773 120.55 37.5139 120.972 37.6195C121.669 37.7885 122.091 38.5064 121.922 39.2033C121.901 39.2877 121.859 39.3933 121.817 39.4778C121.648 39.7945 121.416 40.0691 121.12 40.2802C118.692 42.1807 116.073 43.8489 113.307 45.2426C108.091 47.8822 102.516 49.7616 96.7724 50.8386C93.4571 51.4298 90.1207 51.7888 86.7631 51.9155Z" fill="#00A8E1"/>
<path d="M55.4895 9.11203C56.0174 8.79528 56.5664 8.45741 57.1366 8.16178C58.6147 7.40158 60.2618 7.02148 61.93 7.10594C63.1337 7.16929 64.2318 7.50716 65.0764 8.39406C65.8789 9.21761 66.1745 10.2312 66.259 11.3293C66.2801 11.5616 66.2801 11.7938 66.2801 12.0472V22.9857C66.2801 23.9359 66.1534 24.0626 65.2031 24.0626H62.6269C62.458 24.0626 62.289 24.0626 62.1201 24.0415C61.8667 24.0204 61.6555 23.8092 61.6133 23.5558C61.5711 23.3235 61.5711 23.0913 61.5711 22.859V13.082C61.5922 12.6807 61.5499 12.3006 61.4444 11.9205C61.2754 11.2659 60.6842 10.8014 60.0084 10.7591C58.7625 10.6747 57.5167 10.9281 56.3764 11.456C56.2074 11.4982 56.1018 11.6671 56.123 11.8361V22.9434C56.123 23.1546 56.123 23.3447 56.0807 23.5558C56.0807 23.8515 55.8484 24.0626 55.5528 24.0626C55.2361 24.0837 54.9193 24.0837 54.5814 24.0837H52.3431C51.5618 24.0837 51.3928 23.8937 51.3928 23.1124V13.1242C51.3928 12.7652 51.3717 12.3851 51.2872 12.0261C51.1394 11.3082 50.527 10.8014 49.8091 10.7591C48.5421 10.6747 47.254 10.9281 46.1137 11.4771C45.9447 11.5193 45.8391 11.7094 45.8814 11.8783V23.1335C45.8814 23.9148 45.7124 24.0837 44.9311 24.0837H42.1015C41.3624 24.0837 41.1724 23.8726 41.1724 23.1546V8.49964C41.1724 8.33071 41.1935 8.16178 41.2357 7.99284C41.3202 7.73944 41.5736 7.59163 41.827 7.59163H44.4666C44.8467 7.59163 45.0789 7.82391 45.2056 8.18289C45.3112 8.47853 45.3746 8.75304 45.4802 9.06979C45.6913 9.06979 45.818 8.92198 45.9658 8.83751C47.1273 8.11954 48.352 7.50716 49.7246 7.25376C50.7804 7.04259 51.8363 7.04259 52.8921 7.25376C53.8846 7.46493 54.7715 8.05619 55.3416 8.90086C55.3839 8.96421 55.4261 9.00644 55.4683 9.04868C55.4472 9.06979 55.4683 9.06979 55.4895 9.11203Z" fill="#00A8E1"/>
<path d="M99.2641 19.6282C99.3908 19.2058 99.5175 18.8046 99.6442 18.3823C100.616 15.1092 101.587 11.8572 102.558 8.58414L102.685 8.20404C102.791 7.82394 103.15 7.59166 103.53 7.59166H106.739C107.542 7.59166 107.711 7.82394 107.436 8.58414L106.169 11.9417C104.754 15.616 103.34 19.3114 101.925 22.9857C101.883 23.1124 101.819 23.2391 101.777 23.3658C101.629 23.8093 101.186 24.1049 100.721 24.0627C99.792 24.0415 98.8629 24.0415 97.9337 24.0627C97.2791 24.0838 96.899 23.7881 96.6667 23.1969C96.1388 21.8032 95.5898 20.3884 95.0619 18.9947C93.7949 15.6793 92.5067 12.364 91.2397 9.02759C91.113 8.77419 91.0286 8.47856 90.9652 8.20404C90.9019 7.78171 91.0497 7.57054 91.472 7.57054C92.6757 7.54943 93.8793 7.57054 95.0619 7.57054C95.5687 7.57054 95.8009 7.90841 95.9276 8.35186C96.1599 9.15429 96.3922 9.97784 96.6456 10.7803C97.5114 13.7155 98.3561 16.6718 99.2218 19.607C99.2007 19.6282 99.2218 19.6282 99.2641 19.6282Z" fill="#232F3E"/>
<path d="M24.2789 9.91445C24.4267 9.87222 24.5534 9.78775 24.6378 9.66105C25.0179 9.28095 25.4192 8.92197 25.8415 8.5841C26.9396 7.73943 28.3121 7.3171 29.6847 7.42268C30.2338 7.4438 30.4238 7.61273 30.466 8.14065C30.5083 8.85862 30.4872 9.5977 30.4872 10.3157C30.5083 10.6113 30.4872 10.8858 30.4449 11.1814C30.3605 11.5615 30.2126 11.7094 29.8325 11.7516C29.5369 11.7727 29.2624 11.7516 28.9668 11.7305C27.5519 11.6038 26.1794 11.8783 24.849 12.3218C24.5534 12.4273 24.5534 12.6385 24.5534 12.8708V23.0068C24.5534 23.1968 24.5534 23.3658 24.5323 23.5558C24.5111 23.8303 24.3 24.0415 24.0255 24.0415C23.8776 24.0626 23.7087 24.0626 23.5609 24.0626H20.8157C20.6679 24.0626 20.499 24.0626 20.3512 24.0415C20.0766 24.0204 19.8655 23.7881 19.8444 23.5136C19.8232 23.3447 19.8232 23.1757 19.8232 23.0068V8.64745C19.8232 7.67608 19.9288 7.5705 20.9002 7.5705H22.9274C23.4764 7.5705 23.7298 7.76055 23.8776 8.28847C24.0255 8.81638 24.1522 9.3443 24.2789 9.91445Z" fill="#00A8E1"/>
<path d="M123.063 31.3268C124.456 31.369 125.829 31.4535 127.18 31.8125C127.56 31.918 127.919 32.0448 128.278 32.2137C128.764 32.4037 129.081 32.8683 129.144 33.3751C129.229 33.9664 129.25 34.5787 129.207 35.1911C128.933 38.8021 127.814 42.2863 125.956 45.3905C125.28 46.5097 124.456 47.5233 123.506 48.4102C123.316 48.6002 123.084 48.748 122.83 48.8325C122.429 48.9381 122.176 48.7269 122.155 48.3257C122.176 48.1145 122.218 47.9034 122.302 47.6922C123.041 45.7072 123.759 43.7434 124.33 41.6951C124.667 40.5759 124.9 39.4356 125.047 38.2742C125.09 37.8518 125.111 37.4295 125.069 37.0072C125.047 36.2892 124.583 35.6768 123.886 35.4657C123.231 35.2545 122.556 35.1278 121.859 35.0855C119.916 35.0011 117.973 35.0855 116.052 35.3389L113.497 35.6557C113.222 35.6768 112.969 35.6557 112.821 35.4023C112.673 35.1489 112.736 34.8955 112.884 34.6421C113.053 34.4098 113.264 34.1987 113.518 34.0508C115.08 32.9317 116.833 32.2559 118.691 31.8125C120.127 31.5168 121.584 31.369 123.063 31.3268Z" fill="#00A8E1"/>
<path d="M114.215 15.8272V23.4292C114.172 23.8515 113.982 24.0416 113.56 24.0627C112.42 24.0838 111.3 24.0838 110.16 24.0627C109.738 24.0627 109.548 23.8515 109.505 23.4503C109.484 23.3236 109.484 23.1758 109.484 23.0491V8.43634C109.505 7.78172 109.674 7.59167 110.329 7.59167H113.37C114.024 7.59167 114.215 7.78172 114.215 8.43634V15.8272Z" fill="#232F3E"/>
<path d="M32.5143 15.7849V8.28849C32.5354 7.78169 32.7254 7.59164 33.2322 7.57053C34.3303 7.54941 35.4284 7.54941 36.5264 7.57053C37.0121 7.57053 37.1599 7.71834 37.2022 8.20403C37.2233 8.39408 37.2233 8.56301 37.2233 8.75306V22.8168C37.2233 23.049 37.2022 23.2813 37.1811 23.5136C37.1599 23.7881 36.9488 23.9782 36.6743 23.9993C36.5476 24.0204 36.442 24.0204 36.3153 24.0204H33.3801C33.2745 24.0204 33.19 24.0204 33.0844 23.9993C32.7888 23.9782 32.5354 23.7459 32.5143 23.4503C32.4932 23.2813 32.4932 23.1124 32.4932 22.9435C32.5143 20.5995 32.5143 18.1922 32.5143 15.7849Z" fill="#00A8E1"/>
<path d="M34.964 0.0107599C35.3019 -0.0103568 35.6397 0.0529932 35.9565 0.158577C37.0968 0.538677 37.688 1.53116 37.5825 2.81928C37.498 3.91734 36.6744 4.80424 35.5764 4.97318C35.1118 5.05764 34.6261 5.05764 34.1615 4.97318C32.9579 4.74089 32.071 3.85399 32.1555 2.33359C32.2822 0.83431 33.2746 0.0107599 34.964 0.0107599Z" fill="#00A8E1"/>
<path d="M111.871 0.0107625C112.293 -0.0314708 112.716 0.0529958 113.117 0.221929C113.94 0.538679 114.51 1.29888 114.553 2.18578C114.722 4.1074 113.433 5.07876 111.723 5.03653C111.491 5.03653 111.258 4.9943 111.026 4.95206C109.717 4.63531 109.041 3.62171 109.168 2.16466C109.274 1.00325 110.182 0.137462 111.427 0.0318792C111.575 0.0107625 111.723 -0.0103542 111.871 0.0107625Z" fill="#232F3E"/>
<path d="M16.6979 14.0533C16.6135 12.9552 16.3178 11.8783 15.8744 10.8858C15.0086 9.06978 13.6783 7.73943 11.6511 7.27486C9.32823 6.76806 7.23768 7.27486 5.33718 8.68968C5.21048 8.81638 5.06266 8.92196 4.89373 9.00643C4.8515 8.98531 4.80926 8.9642 4.80926 8.94308C4.74591 8.73191 4.70368 8.52075 4.64033 8.30958C4.4714 7.78166 4.26023 7.59161 3.69008 7.59161C3.05658 7.59161 2.40196 7.61273 1.76846 7.59161C1.28278 7.5705 0.839332 7.63385 0.501465 8.01395C0.501465 15.4048 0.501465 22.8167 0.522582 30.1864C0.797098 30.6299 1.21943 30.7144 1.70511 30.6932C2.46531 30.6721 3.22551 30.6932 3.98571 30.6932C5.31606 30.6932 5.31606 30.6932 5.31606 29.384V23.3658C5.31606 23.2179 5.25272 23.049 5.40053 22.9223C6.45637 23.7459 7.74448 24.2527 9.07483 24.3794C10.9331 24.5694 12.6224 24.1048 14.0372 22.8378C15.072 21.8876 15.8322 20.6628 16.2334 19.3114C16.8035 17.5798 16.8458 15.8271 16.6979 14.0533ZM11.6511 18.4245C11.5032 19.0791 11.1654 19.6703 10.6797 20.1138C10.1307 20.5784 9.45493 20.8529 8.73697 20.8529C7.66001 20.9162 6.60418 20.6839 5.65393 20.1771C5.42165 20.0716 5.27383 19.8393 5.29495 19.5859V15.7638C5.29495 14.4968 5.31606 13.2298 5.29495 11.9628C5.27383 11.6671 5.44276 11.4137 5.71728 11.3081C6.8787 10.7591 8.08235 10.5057 9.34935 10.7591C10.2362 10.8858 10.9964 11.456 11.3554 12.2795C11.6722 12.9552 11.8622 13.6943 11.9045 14.4334C12.0312 15.7849 12.0312 17.1363 11.6511 18.4245Z" fill="#00A8E1"/>
<path d="M169.477 14.5179V14.6024C169.393 14.5179 169.35 14.3912 169.393 14.2856V14.1167C169.393 14.1167 169.393 14.0956 169.414 14.0956H169.393V13.8844H169.435C169.435 13.8633 169.414 13.8633 169.414 13.8422C169.372 13.441 169.287 13.0397 169.181 12.6596C168.4 9.87224 166.647 8.03509 163.797 7.31713C162.466 7.00038 161.115 6.95814 159.763 7.16931C156.913 7.59164 154.864 9.11204 153.872 11.815C152.9 14.3912 152.922 17.2208 153.893 19.7971C154.738 22.141 156.427 23.6192 158.855 24.2316C160.144 24.5483 161.495 24.6328 162.825 24.4427C167.26 23.9148 169.097 20.5573 169.393 17.6432H169.371V17.3475C169.35 17.2208 169.329 17.1153 169.456 17.0308V17.073C169.456 17.0519 169.477 17.0097 169.498 16.9886V14.5601C169.498 14.539 169.477 14.539 169.477 14.5179ZM164.409 18.5301C164.282 18.9735 164.092 19.3747 163.818 19.7548C163.353 20.4095 162.614 20.8318 161.812 20.8951C161.411 20.9374 161.009 20.9374 160.608 20.8529C159.721 20.684 158.982 20.0927 158.623 19.2692C158.306 18.6145 158.116 17.8966 158.053 17.1786C157.947 15.9327 157.926 14.6868 158.222 13.4621C158.327 12.9764 158.539 12.4907 158.792 12.0684C159.257 11.3082 160.059 10.8225 160.946 10.7591C161.347 10.7169 161.748 10.7169 162.15 10.8014C162.994 10.9703 163.691 11.5193 164.071 12.3007C164.43 13.0397 164.641 13.8633 164.684 14.6868C164.705 15.0669 164.726 15.447 164.705 15.8271C164.768 16.7563 164.662 17.6643 164.409 18.5301Z" fill="#232F3E"/>
<path d="M132.459 0.158569H129.524C128.722 0.158569 128.574 0.306386 128.574 1.10882V7.95062C128.574 8.09844 128.637 8.24625 128.532 8.39407C128.342 8.37295 128.236 8.24625 128.088 8.16179C125.892 6.87367 123.59 6.64139 121.268 7.71834C119.642 8.47854 118.628 9.85112 117.973 11.4771C117.34 13.0397 117.192 14.6868 117.234 16.3551C117.234 17.9177 117.593 19.4592 118.29 20.8529C119.092 22.3944 120.254 23.577 121.943 24.0838C124.245 24.8017 126.399 24.4427 128.363 22.9857C128.511 22.9012 128.595 22.7534 128.785 22.7112C128.891 22.9435 128.975 23.1969 129.017 23.4503C129.102 23.7881 129.397 24.0204 129.756 24.0204H130.263C131.023 24.0204 131.762 24.0415 132.502 24.0204C133.093 24.0204 133.262 23.8304 133.283 23.218V0.961003C133.262 0.306386 133.093 0.158569 132.459 0.158569ZM128.595 15.7004V19.5437C128.637 19.7971 128.489 20.0294 128.257 20.1349C127.244 20.7051 126.082 20.9374 124.942 20.7684C123.97 20.6629 123.126 20.0716 122.682 19.2058C122.344 18.5301 122.154 17.8121 122.091 17.073C121.922 15.7427 122.028 14.3912 122.344 13.1031C122.45 12.7441 122.577 12.4062 122.767 12.0684C123.21 11.2448 124.055 10.7169 124.984 10.6536C126.103 10.548 127.222 10.7591 128.236 11.2237C128.489 11.3082 128.637 11.5616 128.616 11.8361C128.574 13.1453 128.595 14.4123 128.595 15.7004Z" fill="#232F3E"/>
<path d="M73.9874 17.1575C75.5711 17.4531 77.1971 17.4742 78.7809 17.2208C79.71 17.0941 80.5969 16.8196 81.4205 16.3762C82.3707 15.8271 83.0676 15.0669 83.3632 14.0111C84.1023 11.3504 82.962 8.66857 80.1957 7.67609C78.8442 7.23264 77.4083 7.08482 75.9935 7.27487C72.657 7.65497 70.482 9.49212 69.4895 12.6807C68.7927 14.8558 68.8772 17.073 69.4473 19.2691C70.1864 22.0777 72.0447 23.7459 74.8532 24.3371C76.458 24.6961 78.084 24.6328 79.6889 24.3794C80.5336 24.2316 81.3782 24.0204 82.1807 23.7036C82.6663 23.5136 82.9197 23.218 82.8986 22.6689C82.8775 22.1621 82.8986 21.6342 82.8986 21.1063C82.8986 20.4728 82.6452 20.2827 82.0328 20.4306C81.4205 20.5784 80.8292 20.7051 80.2168 20.8318C78.9076 21.1063 77.5561 21.1063 76.2469 20.874C74.452 20.515 73.2905 18.9735 73.3961 17.073C73.5862 17.0941 73.7973 17.1152 73.9874 17.1575ZM73.4595 13.9266C73.5228 13.4198 73.6706 12.9341 73.8607 12.4696C74.4942 10.9281 75.8245 10.4001 77.176 10.4846C77.5561 10.5057 77.9362 10.5902 78.2952 10.738C78.8442 10.9703 79.2032 11.4771 79.2666 12.0684C79.3299 12.4273 79.3088 12.8074 79.2032 13.1664C78.9498 13.9266 78.3374 14.2434 77.5983 14.3912C77.1549 14.4968 76.6903 14.539 76.2258 14.4968C75.4022 14.4968 74.5575 14.4334 73.734 14.3067C73.4172 14.2645 73.4172 14.2645 73.4595 13.9266Z" fill="#00A8E1"/>
<path d="M145.214 17.3686C146.439 17.2841 147.664 17.0519 148.762 16.4606C149.881 15.9116 150.662 14.8768 150.894 13.6521C151.042 12.8919 151.042 12.0894 150.873 11.3292C150.43 9.42874 149.226 8.24621 147.41 7.63383C146.397 7.31708 145.32 7.19038 144.264 7.23261C140.716 7.31708 138.013 9.11199 136.915 12.6596C136.176 15.0035 136.282 17.3897 137 19.7337C137.739 22.141 139.428 23.598 141.835 24.2526C142.87 24.506 143.947 24.6116 145.003 24.5694C146.544 24.5483 148.086 24.2526 149.543 23.7036C150.155 23.4713 150.303 23.2602 150.303 22.6055V21.0851C150.282 20.4728 150.029 20.2616 149.416 20.4094C148.952 20.5361 148.508 20.6417 148.044 20.7473C146.629 21.0851 145.151 21.1485 143.715 20.8951C142.279 20.6206 141.307 19.797 140.927 18.3611C140.822 17.9388 140.737 17.5164 140.695 17.073C140.801 17.073 140.906 17.073 140.991 17.1152C142.384 17.3686 143.799 17.4742 145.214 17.3686ZM140.801 13.9899C140.948 13.1664 141.139 12.364 141.645 11.6882C142.427 10.6535 143.504 10.3579 144.728 10.4846C144.834 10.4846 144.918 10.5268 145.024 10.5268C146.502 10.7591 146.861 11.9416 146.587 13.0819C146.375 13.9266 145.679 14.2433 144.897 14.3912C144.475 14.4756 144.031 14.5179 143.588 14.4967C142.722 14.4756 141.878 14.4123 141.033 14.2856C140.843 14.2645 140.758 14.18 140.801 13.9899Z" fill="#232F3E"/>
</svg>
