<svg width="92" height="44" viewBox="0 0 92 44" fill="none" xmlns="http://www.w3.org/2000/svg">
<path d="M28.76 0C26.2872 0.328024 23.4649 1.63489 21.6971 3.59965C19.9293 5.56103 18.8649 7.85567 19.5734 10.1451C22.397 10.1451 24.8754 8.83382 26.6432 6.86906C28.0567 5.23232 29.1142 2.61743 28.76 0ZM52.6002 2.71605L46.2841 4.40689V12.8611H41.0229V17.5109H46.2841V31.9197C46.2841 35.9777 46.9828 38.6818 48.7365 40.7108C50.4903 42.4016 52.9455 43.4188 55.7515 43.4188C58.2067 43.4188 60.3166 43.0832 61.3689 42.7451L61.0126 38.0094C60.3112 38.3476 59.2589 38.3462 57.5052 38.3462C53.647 38.3462 52.6002 35.9777 52.6002 31.9197V17.5109H58.9012V12.8611H52.6002V2.71605ZM12.1544 10.1451C8.61884 10.1451 5.08436 12.1728 2.6116 15.5545C-0.920407 20.627 -0.215134 30.0944 5.08463 37.8723C6.85239 40.9158 9.32795 43.962 12.86 43.962C16.0412 44.3001 16.7441 42.2711 20.9847 42.2711C24.8709 41.933 25.5787 43.962 28.76 43.962C31.9412 43.962 34.7662 40.2408 36.8847 37.5354C37.9474 35.5064 38.6533 34.4932 40.0633 32.1261C32.2908 29.0825 30.8796 18.6019 38.6521 14.5439C36.1793 11.8386 33.0031 10.1451 29.8218 10.1451C25.5848 10.1451 23.8117 12.1728 20.9847 12.1728C18.1576 12.1728 15.6899 10.1451 12.1544 10.1451ZM62.0696 12.8611L73.6694 43.4188H79.6156L91.5716 12.8611H84.9266L79.9718 28.538C78.9231 31.9197 77.868 34.6237 77.17 37.3291H76.8206C76.1191 34.2856 75.0743 31.5815 74.0256 28.538L68.7146 12.8611H62.0696Z" fill="black"/>
</svg>
