<svg width="86" height="42" viewBox="0 0 86 42" fill="none" xmlns="http://www.w3.org/2000/svg">
<path fill-rule="evenodd" clip-rule="evenodd" d="M23.1592 42C30.5379 42 36.5345 36.976 36.5345 29.5963H36.5322C36.5322 25.3133 35.3302 21.5396 30.8845 19.3685C33.004 17.6626 34.254 14.8946 34.254 11.987C34.254 5.74641 29.1569 0 22.9189 0H0.0205078V42L23.1592 42ZM22.9787 16.632H7.5167V7.49937H22.9787C25.0787 7.49937 26.8176 9.99694 26.8176 12.0978C26.8176 14.1987 25.0787 16.632 22.9787 16.632ZM29.036 29.2595C29.036 32.4995 26.3978 34.5028 23.1592 34.5028L7.5167 34.5028V24.1336L23.1592 24.1336C26.3978 24.1336 29.036 26.0195 29.036 29.2595ZM41.5955 0V42H49.0917V0H41.5955ZM78.9227 33.1592V41.9999H85.9792V13.7804L85.9721 13.669L85.9718 13.6651L85.9716 13.6609L85.971 13.6519L85.9695 13.6309L85.9654 13.5772C85.9621 13.5363 85.9576 13.4852 85.9515 13.4247C85.9394 13.3037 85.9211 13.1441 85.8938 12.9515C85.8392 12.5673 85.7479 12.045 85.5962 11.4296C85.2957 10.2113 84.7404 8.55541 83.7078 6.87128C81.5309 3.32125 77.4258 0.010966 70.4104 0.010966C63.3952 0.010966 59.2891 3.32094 57.1106 6.86987C56.0771 8.55368 55.5208 10.2093 55.2196 11.4275C55.0674 12.0429 54.9758 12.5651 54.921 12.9493C54.8936 13.1419 54.8752 13.3014 54.863 13.4224C54.8569 13.483 54.8524 13.534 54.849 13.5749L54.8449 13.6286L54.8434 13.6496L54.8428 13.6587L54.8425 13.6628C54.8425 13.6631 54.8431 13.6556 54.8443 13.643L54.8422 13.6667L54.835 13.7792V41.9999H61.8915V33.1592H78.9227ZM78.9227 25.663V14.0603C78.919 14.0289 78.9139 13.9895 78.9073 13.9428C78.8815 13.7608 78.8326 13.4743 78.745 13.1192C78.5667 12.3963 78.2465 11.464 77.6922 10.5599C76.6949 8.93351 74.7797 7.06738 70.4104 7.06738C66.0409 7.06738 64.1235 8.93382 63.1245 10.5613C62.5693 11.4657 62.2485 12.3983 62.0697 13.1213C61.9819 13.4765 61.9328 13.763 61.9068 13.945C61.9002 13.9913 61.8952 14.0304 61.8915 14.0616V25.663H78.9227ZM54.863 13.4224C54.8681 13.3716 54.8501 13.5769 54.8443 13.643L54.863 13.4224Z" fill="black"/>
</svg>
