<svg width="130" height="32" viewBox="0 0 130 32" fill="none" xmlns="http://www.w3.org/2000/svg">
<path d="M4.13662 0L3.03516 8.98016H31.5177L32.6191 0H4.13662Z" fill="#ED1C24"/>
<path d="M2.62071 12.4011L0.210449 31.9942H28.693L29.7426 23.4935H11.9119L12.3525 19.8263H30.1832L31.1032 12.4011H2.62071Z" fill="#ED1C24"/>
<path d="M89.6103 0C89.6103 0 45.0205 0 42.4677 0C37.6342 0 34.4464 2.53984 33.9929 6.33665C33.8244 7.73615 33.6689 8.9672 33.6689 8.9672H96.4782C96.4782 8.9672 96.5948 8.03419 96.6855 7.29557C97.1521 3.47285 95.5323 0 89.6103 0Z" fill="#ED1C24"/>
<path d="M56.6444 12.4011C54.8043 12.4011 36.8828 12.4011 33.2545 12.4011C32.477 17.5197 35.0298 19.8263 38.6581 19.8263C40.6278 19.8263 53.0679 19.8263 53.0679 19.8263L52.6143 23.4935H31.8939L30.8442 31.9942C30.8442 31.9942 53.4048 32.0072 54.3248 31.9942C55.0764 31.9424 60.3634 31.7998 62.1517 27.4847C62.7348 26.0852 63.2531 21.0573 63.3957 20.0077C64.225 13.8654 59.9876 12.4011 56.6444 12.4011Z" fill="#ED1C24"/>
<path d="M66.4015 12.4011L63.9912 31.9942H74.643L76.1462 19.8263H89.5192C93.316 19.8263 95.3505 17.7918 95.7263 15.0446C95.9207 13.6581 96.0502 12.4011 96.0502 12.4011H66.4015Z" fill="#ED1C24"/>
<path d="M98.2276 12.4011L95.8174 31.9942H106.469L108.879 12.4011H98.2276Z" fill="#ED1C24"/>
<path d="M118.456 12.4011L116.045 31.9942H126.697L129.107 12.4011H118.456Z" fill="#ED1C24"/>
<path d="M122.978 0H99.7436L98.6421 8.98016H129.522C129.522 8.98016 129.561 8.6562 129.69 7.59361C130.455 1.71051 126.645 0 122.978 0Z" fill="#ED1C24"/>
</svg>
