<svg width="132" height="36" viewBox="0 0 132 36" fill="none" xmlns="http://www.w3.org/2000/svg">
<path d="M90.8511 35.097H102.191C104.866 30.7728 107.887 26.8307 111.36 23.1317C114.782 26.8307 117.63 30.7554 120.304 35.097H131.748C127.824 29.123 123.552 23.4269 118.429 17.7829C123.499 12.3647 127.824 6.79016 131.748 0.92041H120.53C117.734 5.24458 114.73 8.89147 111.36 12.4863C107.939 8.89147 104.918 5.26194 102.191 0.92041H90.8511C94.7237 6.96383 99.1174 12.3647 104.24 17.7829C99.1174 23.4269 94.7237 29.2967 90.8511 35.097Z" fill="#002BE7"/>
<path d="M68.5878 36C73.2072 36 77.184 34.2981 80.2578 30.5818V35.0796H89.2014V0.920408H80.2578V5.41824C77.184 1.71925 73.1898 0 68.5878 0C59.2448 0 51.4995 8.02316 51.4995 17.9913C51.4995 27.9769 59.2448 36 68.5878 36ZM59.9395 18.0087C59.9395 12.4342 64.4373 7.93633 70.0118 7.93633C75.5863 7.93633 80.0842 12.4342 80.0842 18.0087C80.0842 23.5832 75.5863 28.081 70.0118 28.081C64.4373 28.0984 59.9395 23.6006 59.9395 18.0087ZM62.2665 18.0087C62.2665 22.3329 65.7397 25.8061 70.0118 25.8061C74.2839 25.8061 77.7571 22.3329 77.7571 18.0087C77.7571 13.6845 74.2839 10.2113 70.0118 10.2113C65.7397 10.2113 62.2665 13.6845 62.2665 18.0087Z" fill="#002BE7"/>
<path d="M0.251953 35.097H9.64703V13.8582C13.7454 10.6108 15.621 9.58617 17.1666 9.58617C18.99 9.58617 20.1883 10.7323 20.1883 13.5804V35.1144H29.5834V13.8061C33.6818 10.6108 35.5052 9.58617 37.1029 9.58617C38.9263 9.58617 40.1246 10.7323 40.1246 13.5804V35.1144H49.5197V10.2808C49.5197 2.58761 45.1261 0.03479 40.9234 0.03479C37.3287 0.03479 33.6991 1.51091 28.9061 5.1578C27.3605 1.33725 24.0088 0.03479 20.9871 0.03479C17.3923 0.03479 13.7628 1.63247 9.09132 5.2099V0.937831H0.269319L0.251953 35.097Z" fill="#002BE7"/>
</svg>
