<svg width="134" height="44" viewBox="0 0 134 44" fill="none" xmlns="http://www.w3.org/2000/svg">
<path d="M133.694 13.7427H123.06V31.4662C123.06 32.2712 122.768 32.9642 122.255 33.5139C121.744 34.0245 121.085 34.246 120.282 34.3189H114.105C113.227 34.246 112.571 34.0271 112.058 33.5139C111.547 32.9668 111.253 32.2712 111.253 31.4662V13.7427H100.618V32.3806C100.691 34.866 101.129 37.0205 102.153 38.74C103.213 40.4569 104.565 41.7725 106.355 42.614C108.218 43.492 110.302 43.9661 112.714 43.9661H123.021V43.8567C125.251 43.8567 127.15 43.3461 128.757 42.4316C130.292 41.4443 131.535 40.0921 132.34 38.3388C133.217 36.6219 133.619 34.5742 133.619 32.3467L133.694 13.7427ZM27.4211 14.8395C25.5583 14.0345 23.5471 13.6697 21.317 13.7427H14.4495L11.7818 14.0345C11.1617 14.2168 10.8673 14.3262 10.8673 14.3262V0H0.305664V43.9635H10.8673V26.1671C10.9403 25.435 11.1591 24.6691 11.7453 24.1949C12.2924 23.6843 12.9151 23.3899 13.793 23.3899H19.9701C20.7021 23.3899 21.3951 23.6817 21.9422 24.1949C22.4893 24.7056 22.7473 25.4376 22.8202 26.1671V43.9635H33.3819V24.815C33.3819 22.1472 32.8348 19.9901 31.7744 18.3461C30.6385 16.7387 29.2135 15.5689 27.4211 14.8395ZM63.3448 31.4662C63.2719 32.2712 63.053 32.9642 62.5398 33.5139C61.9927 34.0245 61.2971 34.246 60.4921 34.3189H54.315C53.51 34.246 52.817 34.0271 52.3428 33.5139C51.7957 32.9668 51.5378 32.2712 51.4649 31.4662V13.7427H40.9032V32.3806C40.9032 34.866 41.4138 37.0205 42.4012 38.74C43.3886 40.4569 44.8137 41.7725 46.6035 42.614C48.4662 43.492 50.4775 43.9661 52.9629 43.9661H63.3422V43.8567C65.5723 43.8567 67.4715 43.3461 69.006 42.4316C70.5405 41.4443 71.7832 40.0921 72.6612 38.3388C73.4662 36.6219 73.9039 34.5742 73.9403 32.3467V13.7088H63.3422V31.4662H63.3448ZM82.0192 44H92.5809V0.00260381H82.0192V44Z" fill="#1CE783"/>
</svg>
