<svg width="128" height="68" viewBox="0 0 128 68" fill="none" xmlns="http://www.w3.org/2000/svg">
<g id="mlb-player" fill="white">
<path d="M123.868 2.24323C122.466 0.841168 120.643 0.140137 118.821 0.140137H7.77747C5.95479 0.140137 4.13211 0.841168 2.73005 2.24323C1.32798 3.64529 0.626953 5.46797 0.626953 7.43086V56.9236C0.626953 58.8865 1.32798 60.7092 2.73005 61.9711C4.13211 63.3731 5.95479 64.0742 7.91768 64.0742H118.961C122.887 64.0742 126.111 60.8494 126.111 56.7834V7.29066C125.971 5.46798 125.27 3.50508 123.868 2.24323Z"/>
</g>
<path d="M125.972 7.29072C125.972 5.32784 125.271 3.50515 123.868 2.10309C122.466 0.701031 120.644 0 118.821 0H87.8354L105.642 29.7237L107.324 29.8639L108.306 31.266V32.5278L109.427 32.8083L110.409 34.2103V35.4722L111.53 35.6124L112.652 36.8742V39.6784C112.652 39.6784 115.176 41.9216 117.419 42.9031C118.961 43.4639 119.101 45.9876 120.083 47.3897C121.205 49.3526 122.887 50.0536 122.607 51.1753C121.765 54.1196 118.821 59.0268 116.017 59.3072H104.941V64.0742H118.681C122.607 64.0742 125.831 60.8495 125.831 56.7835L125.972 7.29072Z" fill="#C5203E"/>
<path d="M50.1197 59.4474H44.7919C44.7919 46.1278 49.2785 38.6968 54.7465 37.2948C55.4476 37.1546 55.1672 33.5092 54.1857 32.3876C54.1857 32.3876 51.5218 32.3876 50.961 32.3876C50.2599 32.2474 50.8208 31.4061 50.8208 31.4061L53.3445 25.9381L53.0641 24.3958H43.8105L51.5218 19.068C51.662 5.04735 66.2434 3.92571 74.9362 9.81437C80.1239 13.3195 80.5445 20.0494 80.1239 24.8164C80.1239 25.0968 78.7218 24.9566 78.7218 24.9566C78.7218 24.9566 77.8806 30.1443 80.1239 30.1443H90.3589C94.5651 30.0041 98.4909 32.8082 98.4909 32.8082L99.4723 29.303L77.1795 0.140137H7.91768C5.95479 0.140137 4.13211 0.841168 2.73005 2.24323C1.32798 3.64529 0.626953 5.46797 0.626953 7.43086V56.9236C0.626953 58.8865 1.32798 60.7092 2.73005 61.9711C4.13211 63.3731 5.95479 64.0742 7.91768 64.0742H52.9239C51.8022 62.2515 50.5404 60.1484 50.1197 59.4474Z" fill="#091F3F"/>
<g id="mlb-ball" fill="white">
<path d="M10.5815 48.932C10.5815 46.2681 12.6846 44.0248 15.4888 44.0248C18.2929 44.0248 20.396 46.2681 20.396 48.932C20.396 51.5959 18.1527 53.8392 15.4888 53.8392C12.8248 53.8392 10.5815 51.7361 10.5815 48.932Z"/>
</g>
<path d="M126.392 65.6166C126.392 65.0557 126.111 64.9155 125.55 64.9155H124.569V67.0186H124.989V66.1774H125.41L125.831 67.0186H126.251L125.69 66.1774C126.111 66.1774 126.392 66.0372 126.392 65.6166ZM125.55 65.897H124.989V65.3361H125.41C125.55 65.3361 125.831 65.3361 125.831 65.6166C125.971 65.7568 125.831 65.897 125.55 65.897Z" fill="#C5203E"/>
<path d="M125.411 64.0742C124.289 64.0742 123.448 64.9155 123.448 66.0371C123.448 67.1588 124.289 68 125.411 68C126.532 68 127.374 67.1588 127.374 66.0371C127.374 64.9155 126.532 64.0742 125.411 64.0742ZM125.411 67.5794C124.569 67.5794 123.868 66.8783 123.868 66.0371C123.868 65.1959 124.569 64.4948 125.411 64.4948C126.252 64.4948 126.953 65.1959 126.953 66.0371C126.953 66.8783 126.252 67.5794 125.411 67.5794Z" fill="#C5203E"/>
</svg>
