<svg width="96" height="88" viewBox="0 0 96 88" fill="none" xmlns="http://www.w3.org/2000/svg">
<path d="M34.3247 0V49.3623C38.0111 48.9127 41.248 48.643 44.0353 48.5531V3.50661M51.8578 30.3457V0H61.5684V49.3623" fill="url(#paint0_linear_2379_96)"/>
<path d="M34.3247 0H44.0353L61.5684 49.3623C57.8819 48.9127 54.5551 48.643 51.588 48.5531" fill="#E50914"/>
<path d="M63.5508 62.7312V81.1375C65.8211 81.2431 68.0855 81.3708 70.3436 81.5214V85.4238C66.7741 85.1858 63.1895 85.0042 59.59 84.8804V62.7312H63.5508ZM95.0247 62.7334L89.8672 74.6905L95.0234 87.9966L95.0177 87.9991C93.5157 87.7848 92.0118 87.5825 90.5034 87.3886L87.6079 79.9205L84.6848 86.6953C83.2995 86.5424 81.9123 86.3976 80.522 86.262L85.5499 74.6106L80.9452 62.7334H85.2299L87.808 69.38L90.6747 62.7334H95.0247ZM45.9967 84.6869L45.9965 62.7333H57.0528V66.6707H49.9573V71.7738H55.326V75.6762H49.9573V84.686L45.9967 84.6869ZM31.2073 66.6711L31.2071 62.7331H43.4576V66.6708H39.3126V84.7938C37.9906 84.8284 36.67 84.8694 35.3521 84.9191V66.6711H31.2073ZM17.6671 86.0536V62.7338H28.6683V66.6712H21.6273V72.0048C23.2449 71.9841 25.5448 71.9606 26.9757 71.964V75.8667C25.1846 75.8445 23.1628 75.8913 21.6273 75.9066V81.8147C23.9674 81.6306 26.3147 81.4696 28.6683 81.3336V85.2364C24.9846 85.4485 21.3174 85.7219 17.6671 86.0536ZM9.89759 77.0322L9.89733 62.7331H13.8581V86.4214C12.4102 86.5704 10.9651 86.7289 9.52242 86.8962L4.9361 73.7203V87.4606C3.61332 87.6328 2.29324 87.8124 0.975586 88V62.7334H4.7396L9.89759 77.0322ZM73.6111 85.6592V62.7334H77.5719V85.9863C76.2534 85.8689 74.9335 85.7604 73.6111 85.6592Z" fill="#DB202C"/>
<defs>
<linearGradient id="paint0_linear_2379_96" x1="42.2254" y1="30.111" x2="55.6825" y2="26.2206" gradientUnits="userSpaceOnUse">
<stop stop-color="#B1060F"/>
<stop offset="0.5"/>
<stop offset="1" stop-color="#B1060F"/>
</linearGradient>
</defs>
</svg>
