<svg width="168" height="48" viewBox="0 0 168 48" fill="none" xmlns="http://www.w3.org/2000/svg">
<path fill-rule="evenodd" clip-rule="evenodd" d="M80.6386 9.66537C81.3653 11.676 81.7287 13.9046 81.7287 16.3512C81.7287 21.0749 80.1905 24.9386 77.114 27.9424C75.8059 29.2505 74.2677 30.2558 72.4993 30.9583C70.7552 31.6608 68.89 32.012 66.9036 32.012H49.3533L46.5918 25.1082H31.1126L28.3148 32.012H19.3761L12.981 20.7115H6.54951V32.012H0.227051V0H15.9969C17.4745 0 18.819 0.24224 20.0302 0.72672C21.2414 1.23542 22.2588 1.96214 23.0824 2.90688C23.9302 3.82739 24.5964 4.92958 25.0809 6.21345C25.5411 7.49733 25.7712 8.91443 25.7712 10.4648C25.7712 15.576 23.797 18.7978 19.8485 20.1301L24.0998 27.7607L35.2186 0H42.4858L52.8416 25.9076H54.84V0H66.0679C68.466 0 70.6341 0.387584 72.572 1.16275C74.5099 1.93792 76.1572 3.04011 77.5137 4.46933C78.8702 5.89854 79.9119 7.63056 80.6386 9.66537ZM19.5578 10.2467C19.5578 9.01132 19.1823 8.00603 18.4314 7.23086C17.7047 6.47992 16.6509 6.10445 15.2702 6.10445H6.54951V14.6071H15.3065C16.6873 14.6071 17.741 14.2195 18.4677 13.4443C19.1944 12.6691 19.5578 11.6033 19.5578 10.2467ZM44.1209 19.0037L38.8159 5.88643L33.5108 19.0037H44.1209ZM75.1155 16.2422C75.1155 14.7887 74.8975 13.4322 74.4615 12.1726C74.0254 10.9371 73.432 9.87128 72.681 8.97499C71.9059 8.05448 70.9975 7.35198 69.9558 6.8675C68.89 6.3588 67.7272 6.10445 66.4676 6.10445H61.1262V25.9076H66.5039C67.8604 25.9076 69.1564 25.5442 70.3918 24.8175C71.6515 24.0665 72.6931 23.0612 73.5167 21.8016C74.5826 20.1059 75.1155 18.2528 75.1155 16.2422Z" fill="black"/>
<path d="M84.5625 32.012H90.8486V0H84.5625V32.012Z" fill="black"/>
<path fill-rule="evenodd" clip-rule="evenodd" d="M167.773 25.9076V32.012H139.685L136.923 25.1082H121.444L118.683 32.012H108.799C106.813 32.012 104.948 31.6608 103.203 30.9583C101.459 30.2558 99.9211 29.2505 98.5888 27.9424C95.5123 24.9386 93.9741 21.0749 93.9741 16.3512C93.9741 13.9046 94.3496 11.676 95.1005 9.66537C95.8273 7.63056 96.8689 5.89854 98.2254 4.46933C99.582 3.04011 101.217 1.93792 103.131 1.16275C105.069 0.387584 107.249 0 109.671 0H115.558V6.10445H109.272C108.012 6.10445 106.849 6.3588 105.783 6.8675C104.717 7.35198 103.797 8.05448 103.022 8.97499C102.271 9.87128 101.677 10.9371 101.241 12.1726C100.83 13.4322 100.624 14.7887 100.624 16.2422C100.624 18.2528 101.157 20.1059 102.222 21.8016C103.022 23.0612 104.051 24.0665 105.311 24.8175C106.571 25.5442 107.879 25.9076 109.235 25.9076H115.194L125.586 0H132.817L143.209 25.9076H145.39V0H151.676V25.9076H167.773ZM134.489 19.0037L129.184 5.88643L123.879 19.0037H134.489Z" fill="black"/>
<path d="M48.9534 38.8794L47.5363 40.1511C47.0276 39.4486 46.5068 39.0974 45.9739 39.0974C45.7074 39.0974 45.5015 39.1701 45.3561 39.3154C45.1866 39.4365 45.1018 39.594 45.1018 39.7878C45.1018 39.9574 45.1623 40.1148 45.2835 40.2602C45.4288 40.4539 45.9012 40.89 46.7006 41.5682C47.4515 42.1981 47.8997 42.5857 48.045 42.731C48.4568 43.1428 48.7354 43.5304 48.8807 43.8938C49.0503 44.2571 49.1351 44.6568 49.1351 45.0928C49.1351 45.9165 48.8444 46.6068 48.263 47.164C47.6816 47.7211 46.9307 47.9997 46.0102 47.9997C45.2835 47.9997 44.6415 47.818 44.0844 47.4547C43.5515 47.0913 43.0912 46.5221 42.7036 45.7469L44.3387 44.7658C44.8474 45.6863 45.4167 46.1466 46.0465 46.1466C46.3857 46.1466 46.6642 46.0497 46.8823 45.8559C47.1245 45.6621 47.2456 45.432 47.2456 45.1655C47.2456 44.9233 47.1608 44.6931 46.9913 44.4751C46.7975 44.2329 46.4099 43.8816 45.8285 43.4214C44.7142 42.5009 43.9996 41.7984 43.6847 41.3139C43.3455 40.8052 43.176 40.3086 43.176 39.8241C43.176 39.1216 43.4546 38.516 44.0117 38.0073C44.5446 37.4986 45.2108 37.2443 46.0102 37.2443C46.5189 37.2443 47.0034 37.3654 47.4636 37.6076C47.9239 37.8256 48.4205 38.2496 48.9534 38.8794Z" fill="black"/>
<path d="M54.2583 37.4989H59.9267V39.4247H58.0372V47.7093H56.0751V39.4247H54.2583V37.4989Z" fill="black"/>
<path d="M65.4497 37.4989H67.4119V44.1121C67.4119 44.6934 67.4603 45.0931 67.5572 45.3111C67.6541 45.5534 67.8237 45.7472 68.0659 45.8925C68.2839 46.0379 68.5625 46.1105 68.9016 46.1105C69.2408 46.1105 69.5315 46.0257 69.7737 45.8562C70.0159 45.7108 70.1855 45.517 70.2824 45.2748C70.3793 45.0326 70.4277 44.5602 70.4277 43.8577V37.4989H72.3899V43.6033C72.3899 44.6208 72.3293 45.3354 72.2082 45.7472C72.0871 46.1348 71.8691 46.5102 71.5542 46.8736C71.215 47.2612 70.8396 47.5397 70.4277 47.7093C69.9917 47.9031 69.4951 48 68.938 48C68.187 48 67.533 47.8183 66.9758 47.455C66.4429 47.1158 66.0553 46.6919 65.8131 46.1832C65.5708 45.6745 65.4497 44.8145 65.4497 43.6033V37.4989Z" fill="black"/>
<path fill-rule="evenodd" clip-rule="evenodd" d="M78.9302 37.4989H81.2193C82.7212 37.4989 83.8234 37.6806 84.5259 38.0439C85.2526 38.4073 85.8582 39.0129 86.3427 39.8607C86.803 40.6844 87.0331 41.6533 87.0331 42.7676C87.0331 43.5428 86.8999 44.2574 86.6334 44.9114C86.3669 45.5897 86.0036 46.1469 85.5433 46.5829C85.0831 47.0189 84.5865 47.3217 84.0536 47.4913C83.5206 47.6366 82.588 47.7093 81.2557 47.7093H78.9302V37.4989ZM80.856 39.3884V45.8562H81.7644C82.6607 45.8562 83.3026 45.7472 83.6902 45.5292C84.102 45.3354 84.429 44.9962 84.6713 44.5117C84.9377 44.0273 85.071 43.4338 85.071 42.7313C85.071 41.6412 84.7682 40.7934 84.1626 40.1878C83.6054 39.6548 82.7212 39.3884 81.51 39.3884H80.856Z" fill="black"/>
<path d="M93.0293 37.4989H94.9551V47.7093H93.0293V37.4989Z" fill="black"/>
<path fill-rule="evenodd" clip-rule="evenodd" d="M106.256 37.2443C107.709 37.2443 108.957 37.7651 109.999 38.8067C111.04 39.8483 111.561 41.1322 111.561 42.6583C111.561 44.136 111.04 45.3956 109.999 46.4373C108.981 47.4789 107.734 47.9997 106.256 47.9997C104.73 47.9997 103.458 47.4668 102.441 46.4009C101.423 45.3351 100.915 44.0754 100.915 42.622C100.915 41.6288 101.145 40.7204 101.605 39.8968C102.089 39.0732 102.743 38.4312 103.567 37.971C104.391 37.4865 105.287 37.2443 106.256 37.2443ZM106.22 39.1337C105.275 39.1337 104.475 39.4608 103.821 40.1148C103.192 40.7931 102.877 41.6409 102.877 42.6583C102.877 43.7726 103.276 44.6568 104.076 45.3109C104.706 45.8438 105.432 46.1102 106.256 46.1102C107.176 46.1102 107.964 45.7711 108.618 45.0928C109.272 44.4388 109.599 43.6152 109.599 42.622C109.599 41.653 109.272 40.8294 108.618 40.1511C107.964 39.4729 107.164 39.1337 106.22 39.1337Z" fill="black"/>
<path d="M123.006 38.8794L121.589 40.1511C121.08 39.4486 120.559 39.0974 120.026 39.0974C119.784 39.0974 119.578 39.1701 119.408 39.3154C119.239 39.4365 119.154 39.594 119.154 39.7878C119.154 39.9574 119.215 40.1148 119.336 40.2602C119.481 40.4539 119.953 40.89 120.753 41.5682C121.504 42.1981 121.952 42.5857 122.097 42.731C122.509 43.1428 122.8 43.5304 122.969 43.8938C123.115 44.2571 123.187 44.6568 123.187 45.0928C123.187 45.9165 122.897 46.6068 122.315 47.164C121.734 47.7211 120.983 47.9997 120.062 47.9997C119.336 47.9997 118.706 47.818 118.173 47.4547C117.616 47.0913 117.143 46.5221 116.756 45.7469L118.391 44.7658C118.9 45.6863 119.469 46.1466 120.099 46.1466C120.438 46.1466 120.716 46.0497 120.934 45.8559C121.177 45.6621 121.298 45.432 121.298 45.1655C121.298 44.9233 121.213 44.6931 121.044 44.4751C120.874 44.2329 120.486 43.8816 119.881 43.4214C118.766 42.5009 118.052 41.7984 117.737 41.3139C117.422 40.8052 117.265 40.3086 117.265 39.8241C117.265 39.1216 117.531 38.516 118.064 38.0073C118.597 37.4986 119.263 37.2443 120.062 37.2443C120.571 37.2443 121.056 37.3654 121.516 37.6076C121.976 37.8256 122.473 38.2496 123.006 38.8794Z" fill="black"/>
</svg>
