<svg width="196" height="48" viewBox="0 0 196 48" fill="none" xmlns="http://www.w3.org/2000/svg">
<path fill-rule="evenodd" clip-rule="evenodd" d="M117.767 37.7072H111.384C111.101 37.3355 111.232 36.9318 111.232 36.5588C111.221 31.8461 111.214 27.1335 111.23 22.4207C111.235 20.8022 110.869 19.4034 109.321 18.562C106.772 17.175 102.632 18.1283 102.669 22.2791C102.716 27.3788 102.68 32.4791 102.68 37.6576H96.2956C96.1953 37.5967 96.1668 37.4614 96.1672 37.3191C96.1831 32.3233 96.1977 27.3275 96.2205 22.332C96.2247 21.4075 96.3832 20.5003 96.5874 19.6003C97.3035 16.4422 99.4697 14.6997 102.362 13.6437C105.47 12.5093 108.599 12.543 111.751 13.4156C112.796 13.7046 113.665 14.3086 114.553 15.0697C116.078 13.7614 117.936 13.2131 119.869 12.9434C123.524 12.4329 126.931 13.1459 129.918 15.3678C131.744 16.7267 132.349 18.773 132.656 20.9253C132.871 22.4394 132.854 23.9627 132.852 25.4864C132.848 29.521 132.851 33.5551 132.851 37.6874C131.465 37.6874 130.123 37.8064 128.811 37.6556C127.337 37.4864 126.487 36.2672 126.479 34.5754C126.462 30.6069 126.476 26.6381 126.467 22.6693C126.466 22.14 126.454 21.6032 126.365 21.0833C126.054 19.2571 124.773 18.0799 122.921 17.8925C122.036 17.8033 121.151 17.7907 120.301 18.1147C118.642 18.7461 117.774 20.0175 117.771 21.8988C117.76 26.7886 117.767 31.6785 117.767 36.5684V37.7072ZM71.5114 13.4032H77.7956C78.0157 13.8248 77.9198 14.2201 77.9205 14.5984C77.9285 19.38 77.933 24.1611 77.9243 28.9426C77.9205 31.1385 78.6615 32.4884 81.2396 33.026C83.7003 33.5394 86.4943 32.2739 86.4794 28.9253C86.4618 24.923 86.5417 20.9191 86.4507 16.9188C86.4029 14.8192 87.4926 13.3041 89.9111 13.3429C90.8958 13.3585 91.8813 13.3453 92.8848 13.3453C92.9214 13.6163 92.9654 13.7881 92.9651 13.9594C92.9537 18.8821 92.9447 23.8049 92.9156 28.7277C92.9118 29.3614 92.8211 29.9973 92.7363 30.6277C92.26 34.1575 90.2801 36.2901 86.8786 37.386C83.1753 38.5788 79.6657 38.2773 76.1383 36.8031C73.3477 35.6369 72.0739 33.4386 71.6243 30.6113C71.4745 29.6678 71.3904 28.717 71.3924 27.7568C71.4017 23.2234 71.3941 18.6897 71.3969 14.1559C71.3973 13.9161 71.3359 13.6628 71.5114 13.4032ZM169.774 37.6923H163.503V6.11493C164.893 6.14612 166.302 5.93396 167.675 6.26656C168.779 6.53412 169.509 7.30118 169.713 8.47006C169.773 8.81689 169.809 9.17273 169.809 9.52478C169.814 18.7327 169.813 27.9414 169.811 37.1493C169.811 37.2873 169.793 37.4258 169.774 37.6923ZM68.4291 13.4502V19.7697C67.2419 19.9607 66.0734 19.7344 64.9193 19.9562C62.7244 20.3778 61.3911 21.725 61.1938 23.9538C61.0942 25.0798 61.1159 26.2182 61.1125 27.3508C61.1032 30.4325 61.1093 33.5145 61.1093 36.5961V37.6851H54.9942C54.774 37.4733 54.8509 37.2109 54.8509 36.9728C54.8474 33.1116 54.8301 29.2504 54.8568 25.3896C54.88 22.0248 55.7076 18.9487 58.2112 16.5092C60.241 14.5317 62.7719 13.7418 65.4988 13.4656C66.4375 13.3699 67.3935 13.4502 68.4291 13.4502ZM159.557 22.6084C159.154 19.6936 157.949 17.1615 155.829 15.0487C152.661 11.8933 145.997 11.8532 143.443 15.9002C143.367 16.021 143.282 16.237 142.995 16.0899C142.995 13.9227 143.02 11.7289 142.989 9.53508C142.958 7.41398 141.727 6.18134 139.62 6.11831C138.67 6.08993 137.717 6.11348 136.62 6.11348V7.10171C136.62 11.7413 136.614 16.3809 136.623 21.0206C136.627 23.4283 136.589 25.8395 136.694 28.2438C136.891 32.7367 139.628 36.1492 143.924 37.3991C146.127 38.0399 148.36 38.1997 150.647 37.9388C154.35 37.5161 157.054 35.8339 158.576 32.2957C159.933 29.1406 160.011 25.9043 159.557 22.6084ZM152.315 30.6526C151.033 33.4649 146.022 33.4913 144.49 31.3019C143.804 30.3221 143.346 29.2743 143.193 28.1009C142.856 25.5111 142.91 23.0098 144.145 20.5676C145.496 17.8964 150.236 17.4866 151.924 19.8836C153.134 21.6015 153.567 23.4391 153.533 25.6118C153.606 27.3047 153.079 28.9773 152.315 30.6526ZM195.184 27.0725C195.444 25.1594 195.263 23.3318 194.942 21.5288C194.285 17.8431 192.421 15.0401 188.845 13.5669C187.623 13.0629 186.343 12.8065 185.032 12.706C179.474 12.2792 175.323 14.6067 173.541 19.8873C172.258 23.6918 172.321 27.5868 173.571 31.3742C174.741 34.92 177.279 37.1454 180.938 38.037C182.048 38.3077 183.18 38.3606 184.313 38.3613C189.223 38.3645 193.706 35.3368 194.952 30.2614C193.402 30.2614 191.912 30.2043 190.429 30.2822C189.495 30.3316 188.589 30.4906 187.851 31.2888C186.531 32.719 183.708 33.0945 181.938 32.3001C180.622 31.7096 178.853 29.0582 179.331 27.0725H195.184ZM184.16 18.1345C186.836 18.1882 188.432 19.9258 188.568 22.9784H179.263C179.499 19.7396 181.199 18.075 184.16 18.1345Z" fill="#323232"/>
<path fill-rule="evenodd" clip-rule="evenodd" d="M15.2315 24.9278C15.2875 22.7402 15.4655 21.0577 16.0875 19.4485C16.9733 17.1567 18.2256 16.3914 20.6312 16.9037C23.7856 17.5756 26.5142 19.0944 28.7911 21.3927C29.0382 21.6426 29.249 21.9337 29.4494 22.2245C30.4339 23.6548 30.5003 24.6665 29.4314 26.0075C27.0721 28.9666 24.067 31.0355 20.3903 31.9998C18.1989 32.5747 16.8856 31.7994 16.0899 29.6572C15.857 29.0295 15.6461 28.3805 15.5372 27.7226C15.3578 26.6419 15.1861 25.5526 15.2315 24.9278Z" fill="#74A441"/>
<path d="M10.8431 3.49365C10.8431 3.49365 6.30382 3.48296 4.33153 6.81379C4.33153 6.81379 2.98192 8.72135 2.08887 12.281C2.08887 12.281 -0.238928 24.4454 1.11624 33.5599C1.11624 33.5599 1.45961 41.4023 6.48519 43.6802C6.48519 43.6802 9.50175 45.488 16.1213 42.935C16.1213 42.935 26.9713 39.2001 32.0962 33.269C32.0962 33.269 23.3521 38.9508 18.8049 39.0058C18.8049 39.0058 12.1342 40.7562 10.6616 35.4676C10.6616 35.4676 7.11269 26.5019 8.21549 12.3539C8.21557 12.3541 8.28993 9.34129 10.8431 3.49365Z" fill="url(#paint0_linear_2379_37)"/>
<path d="M45.2568 25.499C45.2568 25.499 47.5783 21.598 45.7164 18.2038C45.7164 18.2038 44.7621 16.0709 42.1536 13.4887C42.1536 13.4887 32.871 5.29011 24.3373 1.81425C24.3373 1.81425 17.4135 -1.88455 12.8936 1.2805C12.8936 1.2805 9.80128 2.95515 8.62644 9.9519C8.62644 9.9519 6.31464 21.1917 8.80854 28.6225C8.80854 28.6225 8.37239 18.2038 10.641 14.263C10.641 14.263 12.5327 7.63061 17.8338 9.05676C17.8338 9.05676 27.3567 10.5693 38.9703 18.7244C38.9703 18.7244 41.5254 20.3229 45.2568 25.499Z" fill="url(#paint1_linear_2379_37)"/>
<path d="M10.1035 44.2749C10.1035 44.2749 12.5255 48.1146 16.3949 47.9965C16.3949 47.9965 18.7285 48.1146 22.2138 46.9626C22.2138 46.9626 33.7332 42.414 40.7041 36.3886C40.7041 36.3886 47.1433 31.8984 46.3752 26.4344C46.3752 26.4344 46.2869 22.9193 40.5861 18.6958C40.5861 18.6958 31.5446 11.8924 23.7912 10.7405C23.7912 10.7405 31.6952 13.6155 35.8302 18.5335C35.8302 18.5335 40.8811 23.2298 37.2036 27.3059C37.2036 27.3059 31.5325 35.1037 18.994 41.7496C18.9941 41.7494 16.4098 43.3001 10.1035 44.2749Z" fill="url(#paint2_linear_2379_37)"/>
<defs>
<linearGradient id="paint0_linear_2379_37" x1="0.692385" y1="23.8975" x2="32.0962" y2="23.8975" gradientUnits="userSpaceOnUse">
<stop stop-color="#90B667"/>
<stop offset="0.115" stop-color="#8CB361"/>
<stop offset="0.267" stop-color="#7FAB50"/>
<stop offset="0.368" stop-color="#74A441"/>
<stop offset="0.642" stop-color="#629032"/>
<stop offset="1" stop-color="#4E7A21"/>
</linearGradient>
<linearGradient id="paint1_linear_2379_37" x1="7.65083" y1="14.3112" x2="46.4395" y2="14.3112" gradientUnits="userSpaceOnUse">
<stop stop-color="#4E7A21"/>
<stop offset="0.072" stop-color="#5F8D30"/>
<stop offset="0.161" stop-color="#6F9E3C"/>
<stop offset="0.227" stop-color="#74A441"/>
<stop offset="0.473" stop-color="#82AD53"/>
<stop offset="0.76" stop-color="#8CB462"/>
<stop offset="1" stop-color="#90B667"/>
</linearGradient>
<linearGradient id="paint2_linear_2379_37" x1="28.2712" y1="48" x2="28.2712" y2="10.7404" gradientUnits="userSpaceOnUse">
<stop stop-color="#90B667"/>
<stop offset="0.155" stop-color="#8CB361"/>
<stop offset="0.363" stop-color="#7FAB50"/>
<stop offset="0.5" stop-color="#74A441"/>
<stop offset="0.646" stop-color="#6F9E3C"/>
<stop offset="0.841" stop-color="#5F8D30"/>
<stop offset="1" stop-color="#4E7A21"/>
</linearGradient>
</defs>
</svg>
