<svg width="126" height="52" viewBox="0 0 126 52" fill="none" xmlns="http://www.w3.org/2000/svg">
<path d="M124.602 11.2162C124.602 11.2162 123.874 6.12767 121.66 3.87664C118.82 0.934483 115.671 0.934483 114.215 0.761701C103.829 1.1604e-06 88.2179 0 88.2179 0H88.1838C88.1838 0 72.6043 1.1604e-06 62.1863 0.761701C60.7334 0.934483 57.582 0.934483 54.7421 3.87664C52.5275 6.12767 51.7999 11.2162 51.7999 11.2162C51.7999 11.2162 51.0723 17.2052 51.0723 23.1941V28.8034C51.0723 34.7924 51.7999 40.7814 51.7999 40.7814C51.7999 40.7814 52.5275 45.8699 54.7421 48.1209C57.582 51.0631 61.2859 50.9609 62.9455 51.2724C68.9004 51.8272 88.1838 52 88.1838 52C88.1838 52 103.797 51.9659 114.181 51.2383C115.634 51.0655 118.786 51.0655 121.626 48.1234C123.84 45.8723 124.568 40.7838 124.568 40.7838C124.568 40.7838 125.295 34.7948 125.295 28.8059V23.1966C125.364 17.2052 124.602 11.2162 124.602 11.2162Z" fill="url(#paint0_linear_2379_57)"/>
<path d="M47.2299 42.0954H42.4869V39.3601C40.6861 41.4019 39.1627 42.441 37.5371 42.441C36.0842 42.441 35.0792 41.7475 34.5608 40.5015C34.2493 39.7398 34.0425 38.5619 34.0425 36.8317V16.9253H38.7855V35.5857C38.7855 36.6248 38.7855 37.0751 38.7855 37.316C38.8901 38.0095 39.2016 38.2845 39.7905 38.2845C40.6909 38.2845 41.5208 37.4888 42.5258 36.1041V16.9594H47.2688V42.093H47.2299V42.0954Z" fill="black"/>
<path d="M30.5767 25.1678C30.5767 22.4665 30.0219 20.4588 29.0874 19.2129C27.8414 17.4826 25.8678 16.7891 23.8601 16.7891C21.6091 16.7891 19.8789 17.4826 18.6329 19.2129C17.6643 20.4929 17.1436 22.5371 17.1436 25.2018V34.1329C17.1436 36.7977 17.5938 38.6326 18.5623 39.915C19.8083 41.6112 21.85 42.5457 23.8601 42.5457C25.8337 42.5457 27.9096 41.6453 29.192 39.915C30.1606 38.6691 30.5767 36.8001 30.5767 34.1329V25.1678ZM25.8337 34.6172C26.0771 37.1092 25.3154 38.3551 23.8601 38.3551C22.4073 38.3551 21.6091 37.1092 21.8865 34.6172V24.681C21.6432 22.1891 22.4049 21.0113 23.8601 21.0113C25.313 21.0113 26.1112 22.1891 25.8678 24.681L25.8337 34.6172Z" fill="black"/>
<path d="M11.9188 28.4214V42.0955H6.93251V28.4214C6.93251 28.4214 1.77339 11.6324 0.700195 8.51501H5.92745L9.45853 21.6002L12.9215 8.51501H18.1487L11.9188 28.4214Z" fill="black"/>
<g id="ytb-text" fill="white" className="transition-all duration-200">
        <path d="M119.133 30.395V25.3065C119.133 22.6417 118.615 20.7022 117.681 19.4562C116.435 17.76 114.634 16.8596 112.349 16.8596C110.064 16.8596 108.263 17.76 106.949 19.4562C105.98 20.7022 105.425 22.7804 105.425 25.4111V34.1354C105.425 36.766 106.048 38.635 106.983 39.881C108.299 41.5771 110.064 42.4435 112.417 42.4435C114.77 42.4435 116.605 41.5431 117.851 39.7423C118.406 38.9465 118.751 38.0461 118.89 37.041C118.924 36.5908 119.063 35.5517 119.063 34.0989V33.4053H114.32C114.32 35.2061 114.32 36.2793 114.286 36.5202C114.042 37.7321 113.385 38.3211 112.278 38.3211C110.721 38.3211 110.064 37.1797 110.098 34.8581V30.3926L119.133 30.395ZM110.166 23.9193C110.166 21.6002 110.789 20.9772 112.312 20.9772C113.802 20.9772 114.39 21.6707 114.39 23.9534V26.6546H110.166V23.9193Z"/>
        <path d="M98.2583 16.8231C96.5962 16.8231 94.9706 17.8281 93.5154 19.6265V8.75586H89.0498V42.093H93.5154V39.601C95.0047 41.47 96.6668 42.441 98.2583 42.441C100.059 42.441 101.373 41.4724 101.962 39.6376C102.274 38.5984 102.446 36.9728 102.446 34.6537V24.7175C102.446 22.3642 102.135 20.7362 101.858 19.7677C101.269 17.8622 100.057 16.8231 98.2583 16.8231ZM97.7376 34.8946C97.7376 37.3865 97.1486 38.321 95.8686 38.321C95.141 38.321 94.2771 37.9414 93.5154 37.1797V22.0868C94.2771 21.3592 95.1069 20.9455 95.8686 20.9455C97.1851 20.9455 97.7376 21.6731 97.7376 24.1651V34.8946Z"/>
        <path d="M85.3099 42.0955H80.567V39.3602C78.7661 41.4019 77.2427 42.4411 75.6171 42.4411C74.1643 42.4411 73.1592 41.7475 72.6409 40.5015C72.3294 39.7398 72.1226 38.562 72.1226 36.8317V17.1687H76.8655V35.5858C76.8655 36.6249 76.8655 37.0751 76.8655 37.316C76.9702 38.0096 77.2817 38.2846 77.8706 38.2846C78.771 38.2846 79.6008 37.4888 80.6059 36.1041V17.2028H85.3489V42.0931H85.3099V42.0955Z"/>
        <path d="M67.3768 42.0954H62.427V13.5013H57.1997V8.7583H72.8815V13.5013H67.3768V42.0954Z"/>
      </g>
<defs>
<linearGradient id="paint0_linear_2379_57" x1="88.1858" y1="-0.00114377" x2="88.1858" y2="51.9963" gradientUnits="userSpaceOnUse">
<stop stop-color="#E32E28"/>
<stop offset="1" stop-color="#BE2126"/>
</linearGradient>
</defs>
</svg>
